<?xml version="1.0" encoding="UTF-8" standalone="no"?>
<svg width="98px" height="25px" viewBox="0 0 98 25" version="1.1" xmlns="http://www.w3.org/2000/svg" xmlns:xlink="http://www.w3.org/1999/xlink">
    <!-- Generator: Sketch 3.8.3 (29802) - http://www.bohemiancoding.com/sketch -->
    <title>logo</title>
    <desc>Created with Sketch.</desc>
    <defs>
        <polygon id="path-1" points="21.086627 0.217063492 7.41429625e-05 0.217063492 7.41429626e-05 24.6029762 21.086627 24.6029762"></polygon>
    </defs>
    <g id="icon書き出し" stroke="none" stroke-width="1" fill="none" fill-rule="evenodd">
        <g id="logo">
            <g id="Page-1">
                <g id="Group-3" transform="translate(0.000000, 0.179802)">
                    <mask id="mask-2" fill="white">
                        <use xlink:href="#path-1"></use>
                    </mask>
                    <g id="Clip-2"></g>
                    <path d="M18.5648016,22.0811508 L2.5275,22.0811508 C2.5275,22.0811508 2.52829365,8.27043651 2.52948413,7.43234127 C2.52988095,7.27519841 2.58742063,7.07956349 2.69019841,6.96686508 C3.91202381,5.61646825 5.15488095,4.26130952 6.39535714,2.92797619 C6.49218254,2.82361111 6.66638889,2.7343254 6.80448413,2.73392857 C8.22948413,2.72996032 18.5648016,2.73392857 18.5648016,2.73392857 L18.5648016,22.0811508 Z M19.8259127,0.216865079 C19.8259127,0.216865079 8.11202381,0.22202381 6.17035714,0.216865079 C5.65884921,0.215674603 5.2743254,0.387896825 4.93503968,0.760119048 C3.46599206,2.37281746 2.00369048,3.97480159 0.51797619,5.57242063 C0.16202381,5.95575397 -0.00305555556,6.37599206 0.000119047619,6.89940476 C0.00408730159,7.46210317 0.00488095238,23.3422619 0.00488095238,23.3422619 C0.00488095238,24.0359127 0.572738095,24.6029762 1.26638889,24.6029762 L19.8259127,24.6029762 C20.5195635,24.6029762 21.086627,24.0359127 21.086627,23.3422619 L21.086627,1.47837302 C21.086627,0.784722222 20.5195635,0.216865079 19.8259127,0.216865079 L19.8259127,0.216865079 Z" id="Fill-1" fill="#41C9B4" mask="url(#mask-2)"></path>
                </g>
                <path d="M9.02007937,4.5468254 C8.38753968,4.5468254 7.8752381,5.05952381 7.8752381,5.69126984 L7.8752381,7.75595238 C7.8752381,7.9234127 7.73912698,8.05952381 7.57206349,8.05952381 L5.50698413,8.05952381 C4.8752381,8.05952381 4.36293651,8.5718254 4.36293651,9.20396825 C4.36293651,9.83611111 4.8752381,10.3488095 5.50698413,10.3488095 L5.50738095,10.3488095 L9.02007937,10.3488095 C9.65222222,10.3488095 10.1649206,9.83611111 10.1649206,9.20396825 L10.1649206,5.69126984 C10.1649206,5.05952381 9.65222222,4.5468254 9.02007937,4.5468254" id="Fill-4" fill="#41C9B4"></path>
                <path d="M60.5352778,13.5018346 L60.5352778,13.4506441 C60.5352778,11.4196917 59.0701984,9.646279 56.9106746,9.646279 C54.6749603,9.646279 53.3380556,11.3685012 53.3380556,13.3990568 L53.3380556,13.4506441 C53.3380556,15.4808028 54.8035317,17.2542155 56.9618651,17.2542155 C59.1987698,17.2542155 60.5352778,15.5323901 60.5352778,13.5018346 M49.4832937,13.5018346 L49.4832937,13.4506441 C49.4832937,9.49191392 52.6705952,6.27961233 56.9618651,6.27961233 C61.2285317,6.27961233 64.3900397,9.44072344 64.3900397,13.3990568 L64.3900397,13.4506441 C64.3900397,17.4085806 61.2031349,20.6208822 56.9106746,20.6208822 C52.6448016,20.6208822 49.4832937,17.4597711 49.4832937,13.5018346" id="Fill-6" fill="#040000"></path>
                <path d="M70.7655556,16.4055647 L70.7655556,10.3373107 C70.7655556,10.0559615 70.5564286,9.87739011 70.3036508,9.87739011 L69.3540476,9.87739011 C69.3540476,9.87739011 69.1207143,9.87659646 69.1207143,9.63929487 L69.1207143,6.76746947 C69.1207143,6.65556471 69.1413492,6.53651709 69.3568254,6.53651709 L70.2992857,6.53651709 C70.5294444,6.53651709 70.7655556,6.38135836 70.7655556,6.07461233 L70.7655556,3.25119963 C70.7655556,3.09961233 70.8111905,3.01548535 70.991746,3.01548535 L74.4294444,3.01548535 C74.5230952,3.01548535 74.6726984,3.06826313 74.6726984,3.2678663 L74.6726984,6.07461233 C74.6726984,6.34842186 74.7925397,6.53651709 75.1290476,6.53651709 L77.6750794,6.53651709 C77.7992857,6.53651709 77.9111905,6.57421551 77.9111905,6.77381868 L77.9111905,9.63929487 C77.9111905,9.7694536 77.8984921,9.87739011 77.6742857,9.87739011 L75.1342063,9.87739011 C74.8592063,9.87739011 74.6726984,10.0432631 74.6726984,10.3373107 L74.6726984,15.7635012 C74.6726984,16.6631044 75.1397619,17.1615171 75.9310317,17.1000092 C76.678254,17.0420726 77.0024603,17.0079457 77.5369841,16.7527869 C77.5369841,16.7527869 77.8596032,16.6885012 77.8596032,17.0119139 L77.8596032,19.5031838 C77.8596032,19.6615171 77.7814286,19.7988187 77.6413492,19.8706441 C76.8401587,20.2817552 76.007619,20.5440568 74.7754762,20.5440568 C72.3846032,20.5440568 70.7655556,19.5924695 70.7655556,16.4055647" id="Fill-8" fill="#040000"></path>
                <path d="M32.0878571,6.53647741 L35.522381,6.53647741 C35.6180159,6.53647741 35.7580952,6.61981074 35.7580952,6.7721917 L35.7580952,7.50869963 C35.7580952,7.92298535 36.1795238,7.99242979 36.3231746,7.82735043 C37.2001587,6.81742979 38.5080952,6.27933455 39.7938095,6.27933455 C42.7489683,6.27933455 44.4707937,8.23250916 44.4707937,11.3940171 L44.4707937,20.07616 C44.4707937,20.1408425 44.4128571,20.3130647 44.2346825,20.3130647 L40.8013492,20.3130647 C40.7061111,20.3130647 40.5644444,20.2321123 40.5644444,20.0769536 L40.5644444,12.6277473 C40.5644444,10.7777473 39.6910317,9.82615995 38.2001587,9.82615995 C36.7092857,9.82615995 35.7580952,10.7777473 35.7580952,12.6277473 L35.7580952,20.07616 C35.7580952,20.1710012 35.6826984,20.3130647 35.5227778,20.3130647 L32.0878571,20.3130647 C31.9938095,20.3130647 31.851746,20.2297314 31.851746,20.07616 L31.851746,6.7721917 C31.851746,6.66941392 31.9259524,6.53647741 32.0878571,6.53647741" id="Fill-10" fill="#040000"></path>
                <path d="M93.0594444,11.8907234 C92.7269048,10.5478663 91.8816667,9.41532662 90.2368254,9.41532662 C88.1546825,9.41532662 87.4947619,11.3343742 87.3634127,11.8558028 C87.3153968,12.0474695 87.4388095,12.3450885 87.7384127,12.3450885 L92.6602381,12.3450885 C93.1011111,12.3450885 93.0594444,11.8907234 93.0594444,11.8907234 M83.4253175,13.5018346 L83.4253175,13.4506441 C83.4253175,9.51770757 86.2269048,6.27961233 90.2368254,6.27961233 C94.8368254,6.27961233 96.9447619,9.85183455 96.9447619,13.7585806 C96.9447619,13.9514377 96.9348413,14.1637393 96.9213492,14.3839774 C96.912619,14.5165171 96.8189683,14.7863584 96.4888095,14.7863584 L87.8201587,14.7863584 C87.4459524,14.7863584 87.4015079,15.1661203 87.4638095,15.3407234 C87.9697619,16.7522314 89.1177778,17.4855647 90.6733333,17.4855647 C91.8796825,17.4855647 92.7523016,17.1431044 93.7586508,16.3006441 C93.9542857,16.1367552 94.1780952,16.1946917 94.2911905,16.3165171 C94.2911905,16.3165171 95.7784921,17.6327869 95.9780952,17.8097711 C96.1784921,17.987152 96.137619,18.1966758 96.0134127,18.3296123 C94.7201587,19.721279 93.0324603,20.6208822 90.6221429,20.6208822 C86.4840476,20.6208822 83.4253175,17.7165171 83.4253175,13.5018346" id="Fill-12" fill="#040000"></path>
            </g>
        </g>
    </g>
</svg>